<svg xmlns="http://www.w3.org/2000/svg" width="320" height="320" viewBox="0 0 320 320">
  <g id="Group_1" data-name="Group 1" transform="translate(-92 -109)">
    <g id="Rectangle_1" data-name="Rectangle 1" transform="translate(92 109)" stroke="#707070" stroke-width="1">
      <rect width="320" height="320" stroke="none"/>
      <rect x="0.5" y="0.5" width="319" height="319" fill="none"/>
    </g>
    <g id="Rectangle_2" data-name="Rectangle 2" transform="translate(102 216)" stroke="#fff" stroke-width="3.5">
      <rect width="300" height="107" rx="53.5" stroke="none"/>
      <rect x="1.75" y="1.75" width="296.5" height="103.5" rx="51.75" fill="none"/>
    </g>
    <path id="image-gallery-svgrepo-com" d="M47.624,38.984a1.611,1.611,0,0,1,1.93-.921,1.324,1.324,0,0,1,1.074,1.653,7.38,7.38,0,0,1-5.619,4.664L19.626,49.819c-4.291.85-8.5-1.373-9.475-4.992l-6.56-24.36c-.957-3.555,1.585-7.111,5.714-8l5.9-1.264a1.6,1.6,0,0,1,1.894.974A1.338,1.338,0,0,1,15.963,13.8l-5.9,1.264c-2.478.531-4,2.665-3.429,4.8l6.56,24.36c.585,2.171,3.11,3.505,5.7,2.992l25.357-5.432A4.427,4.427,0,0,0,47.624,38.984Zm7.642-8.436V9.691c0-2.217-2.1-4.015-4.685-4.015H22.473c-2.587,0-4.685,1.8-4.685,4.015V25.2l6.7-5.745a1.752,1.752,0,0,1,2.209,0l11.587,9.93,8.3-4.744a1.761,1.761,0,0,1,1.97.167l6.7,5.745ZM55.228,34.3,47.26,27.472l-8.3,4.744a1.762,1.762,0,0,1-1.971-.167L25.6,22.289,17.788,28.98v4.8c0,2.217,2.1,4.015,4.685,4.015H50.582A4.5,4.5,0,0,0,55.228,34.3ZM22.473,3H50.582c4.312,0,7.808,3,7.808,6.691V33.779c0,3.7-3.5,6.691-7.808,6.691H22.473c-4.312,0-7.808-3-7.808-6.691V9.691C14.665,6,18.161,3,22.473,3Zm20.3,5.353H49.02a2.926,2.926,0,0,1,3.123,2.676v5.353a2.926,2.926,0,0,1-3.123,2.676H42.774a2.926,2.926,0,0,1-3.123-2.676V11.029A2.926,2.926,0,0,1,42.774,8.353Zm0,2.676v5.353H49.02V11.029Z" transform="translate(134.61 243)" fill="#fff"/>
    <text id="Choose_Image" data-name="Choose Image" transform="translate(202 277)" fill="#fff" font-size="28" font-family="SitkaText, Sitka Text"><tspan x="0" y="0">Choose Image</tspan></text>
  </g>
</svg>
