<svg xmlns="http://www.w3.org/2000/svg" width="22.688" height="22.688" viewBox="0 0 22.688 22.688"><defs><style>.a{fill:#fff;}</style></defs><path class="a" d="M11.344,0A11.357,11.357,0,0,0,0,11.344a11.209,11.209,0,0,0,1.77,6.081L.051,21.716a.709.709,0,0,0,.922.922l4.291-1.719a11.209,11.209,0,0,0,6.081,1.77A11.344,11.344,0,0,0,11.344,0Zm0,21.27a9.786,9.786,0,0,1-5.6-1.731.7.7,0,0,0-.4-.126.709.709,0,0,0-.264.051l-3.1,1.242,1.242-3.1a.711.711,0,0,0-.075-.666,9.786,9.786,0,0,1-1.731-5.6,9.926,9.926,0,1,1,9.926,9.926Z"/></svg>