<svg xmlns="http://www.w3.org/2000/svg" width="39" height="36.059" viewBox="0 0 39 36.059"><defs><style>.a{fill:#fff;}</style></defs><g transform="translate(-26 -797.47)"><path class="a" d="M10.787,42.53h0A19.807,19.807,0,0,1,3,35.234,20.734,20.734,0,0,1,3,13.766a19.806,19.806,0,0,1,7.792-7.3V8.41a17.936,17.936,0,0,0-3.9,3.057,18.4,18.4,0,0,0-3.824,5.86,19.061,19.061,0,0,0,0,14.349,18.42,18.42,0,0,0,3.824,5.86,17.948,17.948,0,0,0,3.9,3.056v1.938Zm17.426,0h0V40.59a17.947,17.947,0,0,0,3.9-3.056,18.421,18.421,0,0,0,3.824-5.86,19.07,19.07,0,0,0,0-14.349,18.4,18.4,0,0,0-3.824-5.86,17.937,17.937,0,0,0-3.9-3.057V6.47A19.806,19.806,0,0,1,36,13.766a20.734,20.734,0,0,1,0,21.469,19.807,19.807,0,0,1-7.791,7.295Z" transform="translate(26 791)"/><path class="a" d="M547.959-8468.09a.836.836,0,0,1-.838-.836V-8483.2l-.763.52a.839.839,0,0,1-.52.182.834.834,0,0,1-.648-.31.82.82,0,0,1-.185-.613.835.835,0,0,1,.3-.565l0,0,3.905-3.033,8.128-6.645a1.477,1.477,0,0,1,.929-.333,1.478,1.478,0,0,1,.932.333l12.121,9.765a.841.841,0,0,1,.122,1.182.839.839,0,0,1-.65.307.834.834,0,0,1-.52-.182l-.848-.6v14.268a.836.836,0,0,1-.838.836Zm9.972-23.895-9.134,7.468v14.753h18.957v-14.753l-9.134-7.468a.544.544,0,0,0-.345-.121A.542.542,0,0,0,557.931-8491.984Z" transform="translate(-512.818 9294.063)"/></g></svg>